<?xml version="1.0" encoding="utf-8"?>
<!-- Generator: Adobe Illustrator 16.0.4, SVG Export Plug-In . SVG Version: 6.00 Build 0)  -->
<!DOCTYPE svg PUBLIC "-//W3C//DTD SVG 1.1//EN" "http://www.w3.org/Graphics/SVG/1.1/DTD/svg11.dtd">
<svg version="1.1" id="Capa_1" xmlns="http://www.w3.org/2000/svg" xmlns:xlink="http://www.w3.org/1999/xlink" x="0px" y="0px"
	 width="66.137px" height="66.137px" viewBox="0 0 66.137 66.137" enable-background="new 0 0 66.137 66.137" xml:space="preserve">
<g>
	<g>
		<path fill="#8E2800" d="M33.068,66.136C14.834,66.136,0,51.302,0,33.069S14.834,0.001,33.068,0.001
			c18.234,0,33.069,14.834,33.069,33.067S51.302,66.136,33.068,66.136z M33.068,4.001C17.04,4.001,4,17.041,4,33.069
			s13.04,29.066,29.067,29.066c16.028,0,29.069-13.039,29.069-29.066S49.096,4.001,33.068,4.001z"/>
		<circle fill="#8E2800" cx="25.319" cy="25.616" r="4.335"/>
		<circle fill="#8E2800" cx="41.602" cy="25.616" r="4.335"/>
		<path fill="#8E2800" d="M33.406,48.419c-9.211,0-14.993-6.135-15.078-6.229l2.942-2.709c0.425,0.457,10.599,11.065,25.646-0.24
			l2.401,3.195C43.359,46.917,37.963,48.419,33.406,48.419z"/>
	</g>
</g>
</svg>
