<?xml version="1.0" encoding="utf-8"?>
<!-- Generator: Adobe Illustrator 16.0.4, SVG Export Plug-In . SVG Version: 6.00 Build 0)  -->
<!DOCTYPE svg PUBLIC "-//W3C//DTD SVG 1.1//EN" "http://www.w3.org/Graphics/SVG/1.1/DTD/svg11.dtd">
<svg version="1.1" id="Capa_1" xmlns="http://www.w3.org/2000/svg" xmlns:xlink="http://www.w3.org/1999/xlink" x="0px" y="0px"
	 width="100px" height="100px" viewBox="0 0 100 100" enable-background="new 0 0 100 100" xml:space="preserve">
<g>
	<path fill="#8E2800" d="M22.324,31.92v36.411h54.928V31.92H22.324z M49.788,54.404L27.259,34.622h45.06L49.788,54.404z
		 M40.813,50.119L25.025,63.984v-27.73L40.813,50.119z M42.86,51.917L49.788,58l6.927-6.083L72.33,65.63H27.245L42.86,51.917z
		 M58.762,50.12l15.789-13.866v27.73L58.762,50.12z"/>
</g>
<path fill="#8E2800" d="M99.5,50.125C99.5,22.581,77.17,0.25,49.625,0.25S-0.25,22.581-0.25,50.125
	C-0.25,77.671,22.08,100,49.625,100S99.5,77.671,99.5,50.125z M4.284,50.125c0-25.042,20.299-45.341,45.341-45.341
	s45.341,20.299,45.341,45.341s-20.299,45.34-45.341,45.34S4.284,75.167,4.284,50.125z"/>
</svg>
