<?xml version="1.0" encoding="utf-8"?>
<!-- Generator: Adobe Illustrator 16.0.4, SVG Export Plug-In . SVG Version: 6.00 Build 0)  -->
<!DOCTYPE svg PUBLIC "-//W3C//DTD SVG 1.1//EN" "http://www.w3.org/Graphics/SVG/1.1/DTD/svg11.dtd">
<svg version="1.1" id="Capa_1" xmlns="http://www.w3.org/2000/svg" xmlns:xlink="http://www.w3.org/1999/xlink" x="0px" y="0px"
	 width="100px" height="100px" viewBox="0 0 100 100" enable-background="new 0 0 100 100" xml:space="preserve">
<g>
	<g>
		<path fill="#8E2800" d="M49.943,0c6.926,0,13.413,1.313,19.463,3.938c6.051,2.625,11.34,6.202,15.867,10.73
			c4.529,4.528,8.105,9.817,10.731,15.868c2.625,6.05,3.938,12.538,3.938,19.463c0,6.926-1.313,13.414-3.938,19.464
			c-2.626,6.05-6.202,11.339-10.731,15.868c-4.527,4.527-9.816,8.104-15.867,10.73C63.356,98.688,56.869,100,49.943,100
			s-13.414-1.312-19.464-3.938c-6.05-2.626-11.339-6.203-15.868-10.73c-4.528-4.529-8.086-9.818-10.673-15.868
			S0.057,56.926,0.057,50c0-6.925,1.294-13.413,3.881-19.463s6.146-11.339,10.673-15.868c4.528-4.528,9.817-8.105,15.868-10.73
			S43.018,0,49.943,0z M49.943,5.479c-6.165,0-11.949,1.161-17.352,3.482c-5.403,2.321-10.122,5.499-14.155,9.532
			c-4.033,4.034-7.211,8.752-9.532,14.155C6.583,38.052,5.422,43.836,5.422,50s1.161,11.948,3.482,17.352
			c2.321,5.404,5.499,10.122,9.532,14.156c4.034,4.033,8.752,7.211,14.155,9.531c5.403,2.321,11.188,3.482,17.352,3.482
			c6.164,0,11.948-1.161,17.352-3.482c5.403-2.32,10.122-5.498,14.155-9.531c4.034-4.034,7.211-8.752,9.532-14.156
			c2.32-5.404,3.481-11.188,3.481-17.352s-1.161-11.948-3.481-17.352s-5.498-10.122-9.532-14.155
			c-4.033-4.033-8.752-7.211-14.155-9.532C61.892,6.64,56.107,5.479,49.943,5.479z M62.729,58.22
			c4.795-1.675,7.191-4.833,7.191-9.475c0-2.436-0.398-4.357-1.198-5.765c-0.799-1.408-2.073-2.568-3.824-3.481
			c-0.837-0.457-1.827-0.723-2.968-0.799c-1.142-0.076-2.359-0.095-3.653-0.057s-2.663,0.114-4.109,0.229s-2.892,0.171-4.338,0.171
			c-1.446,0-2.892-0.057-4.338-0.171c-1.446-0.114-2.815-0.19-4.109-0.229s-2.511-0.019-3.653,0.057s-2.131,0.342-2.968,0.799
			c-1.75,0.913-3.006,2.074-3.767,3.481c-0.761,1.408-1.142,3.33-1.142,5.765c0,4.642,2.397,7.8,7.192,9.475
			c0.837,0.228,1.75,0.456,2.74,0.685c0.837,0.152,1.883,0.305,3.139,0.456c1.256,0.152,2.721,0.229,4.395,0.229h5.022
			c1.6,0,3.045-0.076,4.34-0.229c1.293-0.151,2.396-0.304,3.311-0.456C61.055,58.676,61.967,58.447,62.729,58.22z M76.428,41.667
			c0,2.435-0.268,4.737-0.799,6.906c-0.533,2.169-1.522,4.129-2.969,5.879c-1.445,1.751-3.443,3.196-5.993,4.338
			s-5.803,1.864-9.761,2.169c0.609,0.305,1.39,0.686,2.341,1.142c0.951,0.457,1.77,1.332,2.454,2.626
			c0.381,0.836,0.628,2.055,0.742,3.652s0.171,3.234,0.171,4.908c0,1.676-0.019,3.216-0.057,4.623
			c-0.038,1.408,0.019,2.266,0.171,2.569c0.305,0.608,0.742,1.142,1.312,1.598c0.571,0.456,1.047,0.799,1.428,1.027
			c0.38,0.229,0.494,0.515,0.342,0.856c-0.152,0.343-0.685,0.553-1.598,0.627c-0.457,0-1.027-0.074-1.713-0.228
			c-0.685-0.152-1.332-0.419-1.94-0.8c-0.608-0.38-1.122-0.855-1.541-1.426c-0.419-0.571-0.628-1.312-0.628-2.227v-9.361
			c0-1.064-0.247-1.826-0.742-2.283c-0.494-0.456-1.008-0.761-1.541-0.912V79.68c0,2.207,0.266,3.653,0.799,4.338
			c0.229,0.305,0.438,0.629,0.628,0.971c0.19,0.343,0.305,0.628,0.343,0.856c0.038,0.228-0.096,0.361-0.4,0.399
			s-0.875-0.057-1.713-0.285c-1.598-0.381-2.739-1.256-3.424-2.625c-0.685-1.37-1.027-2.816-1.027-4.338V66.896h-2.511v12.101
			c0,1.521-0.324,2.968-0.971,4.338c-0.646,1.369-1.807,2.244-3.481,2.625c-0.837,0.229-1.389,0.323-1.655,0.285
			c-0.267-0.037-0.399-0.172-0.399-0.399c0-0.229,0.114-0.514,0.342-0.856c0.228-0.342,0.457-0.666,0.685-0.971
			c0.152-0.304,0.323-0.837,0.514-1.598c0.19-0.761,0.285-1.674,0.285-2.74V67.352c-0.533,0.151-1.027,0.455-1.484,0.912
			s-0.685,1.219-0.685,2.283v9.361c0,0.913-0.209,1.655-0.628,2.227c-0.418,0.57-0.932,1.046-1.541,1.426
			c-0.609,0.381-1.256,0.648-1.94,0.8c-0.685,0.151-1.256,0.229-1.712,0.229c-0.914-0.076-1.446-0.285-1.598-0.628
			c-0.152-0.342-0.038-0.627,0.342-0.855s0.856-0.572,1.427-1.028c0.57-0.456,1.008-0.989,1.312-1.598
			c0.152-0.381,0.209-1.39,0.171-3.025s-0.057-3.444-0.057-5.423c-0.609,0.229-1.408,0.381-2.397,0.457s-2.093,0-3.311-0.229
			c-2.055-0.381-3.615-1.046-4.68-1.998c-1.065-0.951-2.093-2.454-3.082-4.509c-0.533-0.989-1.123-1.808-1.77-2.454
			s-1.218-1.16-1.712-1.541s-0.875-0.704-1.142-0.971c-0.266-0.266-0.285-0.514-0.057-0.742c0.457-0.532,1.084-0.761,1.884-0.686
			c0.799,0.076,1.274,0.191,1.427,0.343c0.913,0.38,1.827,1.18,2.74,2.397c0.913,1.219,1.865,2.246,2.854,3.082
			c0.457,0.381,1.027,0.761,1.712,1.142c0.685,0.38,1.446,0.647,2.283,0.799c0.837,0.152,1.75,0.152,2.739,0
			c0.99-0.151,1.979-0.571,2.968-1.255c0.229-0.99,0.59-1.77,1.084-2.341s1.027-1.027,1.598-1.37
			c0.571-0.342,1.104-0.609,1.598-0.799c0.495-0.19,0.895-0.361,1.199-0.514c-4.186-0.305-7.61-1.008-10.274-2.111
			s-4.775-2.512-6.336-4.225c-1.56-1.712-2.625-3.672-3.196-5.879s-0.856-4.528-0.856-6.963c0-2.512,0.38-4.757,1.142-6.735
			c0.761-1.979,1.826-3.729,3.196-5.251c-0.609-1.827-0.818-3.749-0.628-5.765s0.59-3.824,1.199-5.422
			c2.892,0.152,5.308,0.761,7.249,1.827c1.94,1.065,3.292,1.94,4.052,2.625c3.272-0.913,6.659-1.37,10.16-1.37h0.799
			c3.272,0,6.431,0.381,9.475,1.142c0.837-0.685,2.207-1.522,4.109-2.511s4.262-1.56,7.078-1.712
			c0.608,1.522,1.008,3.234,1.198,5.137c0.19,1.902,0.058,3.729-0.399,5.479c1.521,1.522,2.701,3.33,3.539,5.422
			C76.009,36.625,76.428,39.003,76.428,41.667z M49.715,39.041h0.114h0.114H49.715z M64.441,47.945c0,1.065-0.285,1.979-0.856,2.74
			c-0.571,0.761-1.274,1.141-2.112,1.141c-0.836,0-1.521-0.38-2.055-1.141c-0.532-0.762-0.799-1.675-0.799-2.74
			s0.267-1.979,0.799-2.74c0.533-0.761,1.218-1.142,2.055-1.142c0.838,0,1.541,0.381,2.112,1.142
			C64.156,45.967,64.441,46.88,64.441,47.945z M42.066,47.945c0,1.065-0.286,1.979-0.856,2.74c-0.57,0.761-1.274,1.141-2.112,1.141
			c-0.837,0-1.522-0.38-2.055-1.141c-0.533-0.762-0.799-1.675-0.799-2.74s0.266-1.979,0.799-2.74
			c0.533-0.761,1.218-1.142,2.055-1.142c0.837,0,1.542,0.381,2.112,1.142C41.781,45.967,42.066,46.88,42.066,47.945z"/>
	</g>
</g>
</svg>
